<svg width="48" height="48" viewBox="0 0 48 48" fill="none" xmlns="http://www.w3.org/2000/svg">
<rect width="48" height="48" rx="24" fill="white"/>
<path d="M33.3337 34.5V32.1667C33.3337 30.929 32.842 29.742 31.9668 28.8668C31.0917 27.9917 29.9047 27.5 28.667 27.5H19.3337C18.096 27.5 16.909 27.9917 16.0338 28.8668C15.1587 29.742 14.667 30.929 14.667 32.1667V34.5M28.667 18.1667C28.667 20.744 26.5777 22.8333 24.0003 22.8333C21.423 22.8333 19.3337 20.744 19.3337 18.1667C19.3337 15.5893 21.423 13.5 24.0003 13.5C26.5777 13.5 28.667 15.5893 28.667 18.1667Z" stroke="#5FA55C" stroke-width="2.33333" stroke-linecap="round" stroke-linejoin="round"/>
</svg>
