<svg width="48" height="48" viewBox="0 0 48 48" fill="none" xmlns="http://www.w3.org/2000/svg">
<rect width="48" height="48" rx="24" fill="white"/>
<path d="M33.3332 34.5V32.1667C33.3332 30.929 32.8415 29.742 31.9663 28.8668C31.0912 27.9917 29.9042 27.5 28.6665 27.5H19.3332C18.0955 27.5 16.9085 27.9917 16.0333 28.8668C15.1582 29.742 14.6665 30.929 14.6665 32.1667V34.5M28.6665 18.1667C28.6665 20.744 26.5772 22.8333 23.9998 22.8333C21.4225 22.8333 19.3332 20.744 19.3332 18.1667C19.3332 15.5893 21.4225 13.5 23.9998 13.5C26.5772 13.5 28.6665 15.5893 28.6665 18.1667Z" stroke="#6495DF" stroke-width="2.33333" stroke-linecap="round" stroke-linejoin="round"/>
</svg>
