<svg width="23" height="21" viewBox="0 0 23 21" fill="none" xmlns="http://www.w3.org/2000/svg">
<path d="M7.33301 5.30428V3.21733C7.33301 2.66383 7.5525 2.13301 7.9432 1.74163C8.3339 1.35025 8.86381 1.13037 9.41634 1.13037H13.583C14.1355 1.13037 14.6654 1.35025 15.0561 1.74163C15.4468 2.13301 15.6663 2.66383 15.6663 3.21733V5.30428M7.33301 5.30428H3.16634C2.01575 5.30428 1.08301 6.23865 1.08301 7.39124V17.826C1.08301 18.9786 2.01575 19.913 3.16634 19.913H19.833C20.9836 19.913 21.9163 18.9786 21.9163 17.826V7.39124C21.9163 6.23865 20.9836 5.30428 19.833 5.30428H15.6663M7.33301 5.30428H15.6663" stroke="#4E4E4E" stroke-width="2" stroke-linecap="round" stroke-linejoin="round"/>
</svg>
