<svg width="25" height="28" viewBox="0 0 25 28" fill="none" xmlns="http://www.w3.org/2000/svg">
<path d="M8.33301 8.5454V6.36358C8.33301 5.78493 8.5525 5.22997 8.9432 4.8208C9.3339 4.41163 9.86381 4.18176 10.4163 4.18176H14.583C15.1355 4.18176 15.6654 4.41163 16.0561 4.8208C16.4468 5.22997 16.6663 5.78493 16.6663 6.36358V8.5454M8.33301 8.5454H4.16634C3.01575 8.5454 2.08301 9.52223 2.08301 10.7272V21.6363C2.08301 22.8413 3.01575 23.8181 4.16634 23.8181H20.833C21.9836 23.8181 22.9163 22.8413 22.9163 21.6363V10.7272C22.9163 9.52223 21.9836 8.5454 20.833 8.5454H16.6663M8.33301 8.5454H16.6663" stroke="#4E4E4E" stroke-width="2" stroke-linecap="round" stroke-linejoin="round"/>
</svg>
