<svg width="105" height="119" viewBox="0 0 105 119" fill="none" xmlns="http://www.w3.org/2000/svg">
<path d="M56.1606 78.1678C55.7806 77.7162 55.2205 77.4555 54.6303 77.4555H51.4126C50.8632 77.4555 50.338 77.6815 49.9602 78.0805L44.0487 84.3248L48.1492 89.5661C48.4978 90.0115 48.6414 90.5838 48.5445 91.141L44.0487 117H60.5705L56.9736 91.085C56.9008 90.5604 57.0391 90.0283 57.358 89.6055L61.3419 84.3248L56.1606 78.1678Z" fill="#FF6464"/>
<path d="M43.1975 85.2239C42.0806 86.4036 40.0976 85.83 39.783 84.2362L37.5649 72.9998C7.44098 80.8083 6.9594 81.6186 2.78597 114.729C2.63544 115.924 3.56398 117 4.76773 117H20.4963H44.0487L48.5445 91.141C48.6414 90.5838 48.4978 90.0115 48.1492 89.5661L44.0487 84.3248L43.1975 85.2239Z" fill="white"/>
<path d="M100.096 117C101.346 117 102.29 115.865 102.081 114.632C98.1189 91.203 101.394 80.188 67.9917 72.9998L65.3766 84.1556C65.001 85.758 62.9588 86.2462 61.8992 84.987L61.3419 84.3248L57.358 89.6055C57.0391 90.0283 56.9008 90.5604 56.9736 91.085L60.5705 117H85.6169H100.096Z" fill="white"/>
<path d="M67.9917 72.9998C101.394 80.188 98.1189 91.203 102.081 114.632C102.29 115.865 101.346 117 100.096 117H85.6169M67.9917 72.9998L65.3766 84.1556C65.001 85.758 62.9588 86.2462 61.8992 84.987L61.3419 84.3248M67.9917 72.9998V70.0293M37.5649 72.9998L39.783 84.2362C40.0976 85.83 42.0806 86.4036 43.1975 85.2239L44.0487 84.3248M37.5649 72.9998C7.44098 80.8083 6.9594 81.6186 2.78597 114.729C2.63544 115.924 3.56398 117 4.76773 117H20.4963M37.5649 72.9998V70.0293M44.0487 84.3248L49.9602 78.0805C50.338 77.6815 50.8632 77.4555 51.4126 77.4555H54.6303C55.2205 77.4555 55.7806 77.7162 56.1606 78.1678L61.3419 84.3248M44.0487 84.3248L48.1492 89.5661C48.4978 90.0115 48.6414 90.5838 48.5445 91.141L44.0487 117M44.0487 117H60.5705M44.0487 117H20.4963M60.5705 117L56.9736 91.085C56.9008 90.5604 57.0391 90.0283 57.358 89.6055L61.3419 84.3248M60.5705 117H85.6169M21.9805 100.848L20.4963 117M85.6169 117L83.5761 100.848" stroke="#4E4E4E" stroke-width="4" stroke-linecap="round" stroke-linejoin="round"/>
<path d="M29.7728 34.9402C36.8298 35.7248 51.7994 35.0578 60.074 27.092C61.2062 26.0021 63.2848 26.2136 64.1532 27.5233C66.4517 30.99 70.4529 34.9402 75.7839 34.9402C77.2161 34.9402 78.4238 35.2437 79.4145 35.764C79.7761 22.0166 80.8595 15.8997 72.8901 15.3085C72.0677 15.2475 71.3255 14.7442 70.9771 13.9967C61.8294 -5.62613 25.8767 -3.04768 25.8767 35.764C26.9389 35.2437 28.2345 34.9402 29.7728 34.9402Z" fill="#F0DDAC"/>
<path d="M38.3071 61.6746C45.9138 69.532 45.9138 69.2865 52.4073 69.2865C61.6838 69.2865 63.2623 67.7995 68.5483 61.6746C72.8915 56.6423 74.7193 53.3832 75.4523 49.7926C76.2222 46.0209 75.7839 41.8833 75.7839 34.9402C70.4529 34.9402 66.4517 30.99 64.1532 27.5233C63.2848 26.2136 61.2062 26.0021 60.074 27.092C51.7994 35.0578 36.8298 35.7248 29.7728 34.9402C29.7728 41.4291 29.438 46.9804 29.9519 49.7926C30.5995 53.3368 32.595 55.7741 38.3071 61.6746Z" fill="white"/>
<path d="M29.9519 49.7926C29.438 46.9804 29.7728 41.4291 29.7728 34.9402C28.2345 34.9402 26.9389 35.2437 25.8767 35.764C19.5085 38.8831 21.53 49.7926 29.9519 49.7926Z" fill="white"/>
<path d="M75.7839 34.9402C75.7839 41.8833 76.2222 46.0209 75.4523 49.7926C83.4932 49.7926 85.3538 38.8831 79.4145 35.764C78.4238 35.2437 77.2161 34.9402 75.7839 34.9402Z" fill="white"/>
<path d="M29.7728 34.9402C29.7728 41.4292 29.438 46.9804 29.9519 49.7926M29.7728 34.9402C36.8298 35.7248 51.7994 35.0578 60.074 27.092C61.2062 26.0021 63.2848 26.2136 64.1532 27.5233C66.4517 30.99 70.4529 34.9402 75.7839 34.9402M29.7728 34.9402C28.2345 34.9402 26.9389 35.2437 25.8767 35.764M75.7839 34.9402C75.7839 41.8833 76.2222 46.0209 75.4523 49.7926M75.7839 34.9402C77.2161 34.9402 78.4238 35.2437 79.4145 35.764M29.9519 49.7926C30.5995 53.3368 32.595 55.7741 38.3071 61.6746C45.9138 69.532 45.9138 69.2865 52.4073 69.2865C61.6838 69.2865 63.2623 67.7995 68.5483 61.6746C72.8915 56.6423 74.7193 53.3832 75.4523 49.7926M29.9519 49.7926C21.53 49.7926 19.5085 38.8831 25.8767 35.764M75.4523 49.7926C83.4932 49.7926 85.3538 38.8831 79.4145 35.764M25.8767 35.764C25.8767 -3.04768 61.8294 -5.62613 70.9771 13.9967C71.3255 14.7442 72.0677 15.2475 72.8901 15.3085C80.8595 15.8997 79.7761 22.0166 79.4145 35.764" stroke="#4E4E4E" stroke-width="4" stroke-linecap="round" stroke-linejoin="round"/>
</svg>
