<svg width="104" height="119" viewBox="0 0 104 119" fill="none" xmlns="http://www.w3.org/2000/svg">
<path d="M55.6606 78.1676C55.2806 77.7161 54.7205 77.4554 54.1303 77.4554H50.9126C50.3632 77.4554 49.838 77.6814 49.4602 78.0804L43.5487 84.3247L47.6492 89.5659C47.9978 90.0114 48.1414 90.5836 48.0445 91.1409L43.5487 117H60.0705L56.4736 91.0849C56.4008 90.5603 56.5391 90.0282 56.858 89.6054L60.8419 84.3247L55.6606 78.1676Z" fill="#FF6464"/>
<path d="M67.4917 72.9997C100.894 80.1879 97.6189 91.2029 101.581 114.632C101.79 115.865 100.846 117 99.5959 117H85.1169M67.4917 72.9997L64.8766 84.1555C64.501 85.7579 62.4588 86.2461 61.3992 84.9868L60.8419 84.3247M67.4917 72.9997V70.0292M37.0649 72.9997L39.283 84.2361C39.5976 85.8299 41.5806 86.4035 42.6975 85.2238L43.5487 84.3247M37.0649 72.9997C6.94098 80.8082 6.4594 81.6185 2.28597 114.729C2.13544 115.924 3.06398 117 4.26773 117H19.9963M37.0649 72.9997V70.0292M43.5487 84.3247L49.4602 78.0804C49.838 77.6814 50.3632 77.4554 50.9126 77.4554H54.1303C54.7205 77.4554 55.2806 77.7161 55.6606 78.1676L60.8419 84.3247M43.5487 84.3247L47.6492 89.5659C47.9978 90.0114 48.1414 90.5836 48.0445 91.1409L43.5487 117M43.5487 117H60.0705M43.5487 117H19.9963M60.0705 117L56.4736 91.0849C56.4008 90.5603 56.5391 90.0282 56.858 89.6054L60.8419 84.3247M60.0705 117H85.1169M21.4805 100.848L19.9963 117M85.1169 117L83.0761 100.848" stroke="#4E4E4E" stroke-width="4" stroke-linecap="round" stroke-linejoin="round"/>
<path d="M29.2728 34.9402C36.3297 35.7248 51.2994 35.0578 59.574 27.092C60.7061 26.0021 62.7847 26.2136 63.6531 27.5233C65.9516 30.99 69.9529 34.9402 75.2839 34.9402C76.7161 34.9402 77.9237 35.2437 78.9144 35.764C79.2761 22.0166 80.3594 15.8997 72.39 15.3085C71.5676 15.2475 70.8255 14.7442 70.477 13.9967C61.3294 -5.62613 25.3766 -3.04768 25.3766 35.764C26.4388 35.2437 27.7345 34.9402 29.2728 34.9402Z" fill="#F0DDAC"/>
<path d="M29.2728 34.9402C29.2727 41.4292 28.938 46.9804 29.4518 49.7926M29.2728 34.9402C36.3297 35.7248 51.2994 35.0578 59.574 27.092C60.7061 26.0021 62.7847 26.2136 63.6531 27.5233C65.9516 30.99 69.9529 34.9402 75.2839 34.9402M29.2728 34.9402C27.7345 34.9402 26.4388 35.2437 25.3766 35.764M75.2839 34.9402C75.2839 41.8833 75.7221 46.0209 74.9522 49.7926M75.2839 34.9402C76.7161 34.9402 77.9237 35.2437 78.9144 35.764M29.4518 49.7926C30.0994 53.3368 32.0949 55.7741 37.8071 61.6746C45.4138 69.532 45.4138 69.2865 51.9073 69.2865C61.1837 69.2865 62.7622 67.7995 68.0483 61.6746C72.3914 56.6423 74.2193 53.3832 74.9522 49.7926M29.4518 49.7926C21.03 49.7926 19.0084 38.8831 25.3766 35.764M74.9522 49.7926C82.9931 49.7926 84.8537 38.8831 78.9144 35.764M25.3766 35.764C25.3766 -3.04768 61.3294 -5.62613 70.477 13.9967C70.8255 14.7442 71.5676 15.2475 72.39 15.3085C80.3594 15.8997 79.2761 22.0166 78.9144 35.764" stroke="#4E4E4E" stroke-width="4" stroke-linecap="round" stroke-linejoin="round"/>
</svg>
