<svg width="104" height="127" viewBox="0 0 104 127" fill="none" xmlns="http://www.w3.org/2000/svg">
<path d="M19.657 81.0039C18.493 81.0039 17.5749 81.9941 17.6627 83.1548L19.9963 114.001L20.8341 123.182C20.9281 124.212 21.7917 125 22.8258 125H82.1928C83.2191 125 84.0789 124.223 84.1826 123.202L85.1169 114.001L87.3452 83.148C87.4288 81.9897 86.5117 81.0039 85.3503 81.0039H19.657Z" fill="#E0E0E0"/>
<path d="M67.4917 70.0045C100.894 77.1921 97.6189 88.2061 101.581 111.633C101.79 112.865 100.846 114.001 99.5959 114.001H85.1169M67.4917 70.0045V67.0343M67.4917 70.0045C67.4917 81.0039 37.0649 81.0039 37.0649 70.0045M37.0649 70.0045C6.94105 77.8123 6.45941 78.6226 2.286 111.73C2.13545 112.924 3.06399 114.001 4.26776 114.001H19.9963M37.0649 70.0045V67.0343M19.9963 114.001L17.6627 83.1548C17.5749 81.9941 18.493 81.0039 19.657 81.0039H85.3503C86.5117 81.0039 87.4288 81.9897 87.3452 83.148L85.1169 114.001M19.9963 114.001L20.8341 123.182C20.9281 124.212 21.7917 125 22.8258 125H82.1928C83.2191 125 84.0789 124.223 84.1826 123.202L85.1169 114.001" stroke="#4E4E4E" stroke-width="4" stroke-linecap="round" stroke-linejoin="round"/>
<path d="M29.2728 31.9485C36.3806 32.7387 43.1797 30.5107 49.9516 22.1103C50.8872 20.9498 52.751 21.061 53.6256 22.2681C59.4877 30.3585 68.8344 31.9485 75.2839 31.9485C76.7161 31.9485 77.9237 32.2519 78.9144 32.7722C78.9144 2.01085 59.8146 2.01084 51.9073 2.01085C44 2.01086 25.3766 0.510995 25.3766 32.7722C26.4388 32.2519 27.7345 31.9485 29.2728 31.9485Z" fill="#BA9682"/>
<path d="M29.2728 31.9485C29.2727 38.4368 28.938 43.9876 29.4518 46.7996M29.2728 31.9485C36.3806 32.7387 43.1797 30.5107 49.9516 22.1103C50.8872 20.9498 52.751 21.061 53.6256 22.2681C59.4877 30.3585 68.8344 31.9485 75.2839 31.9485M29.2728 31.9485C27.7345 31.9485 26.4388 32.2519 25.3766 32.7722M75.2839 31.9485C75.2839 38.891 75.7221 43.0282 74.9522 46.7996M75.2839 31.9485C76.7161 31.9485 77.9237 32.2519 78.9144 32.7722M29.4518 46.7996C30.0994 50.3434 32.0949 52.7806 37.8071 58.6805C45.4138 66.5372 45.4138 66.2917 51.9073 66.2917C61.1837 66.2917 62.7622 64.8048 68.0483 58.6805C72.3914 53.6486 74.2193 50.3899 74.9522 46.7996M29.4518 46.7996C21.03 46.7996 19.0084 35.891 25.3766 32.7722M74.9522 46.7996C82.9931 46.7996 84.8537 35.891 78.9144 32.7722M25.3766 32.7722C25.3766 0.510995 44 2.01086 51.9073 2.01085C59.8146 2.01084 78.9144 2.01085 78.9144 32.7722" stroke="#4E4E4E" stroke-width="4" stroke-linecap="round" stroke-linejoin="round"/>
</svg>
