<svg width="105" height="127" viewBox="0 0 105 127" fill="none" xmlns="http://www.w3.org/2000/svg">
<path d="M20.157 81.0038C18.993 81.0038 18.0749 81.994 18.1627 83.1547L20.4963 114.001L21.3341 123.182C21.4281 124.212 22.2917 125 23.3258 125H82.6928C83.7191 125 84.5789 124.223 84.6826 123.202L85.6169 114.001L87.8452 83.1479C87.9288 81.9896 87.0117 81.0038 85.8503 81.0038H20.157Z" fill="#E0E0E0"/>
<path d="M100.096 114.001C101.346 114.001 102.29 112.865 102.081 111.632C98.1189 88.206 101.394 77.192 67.9917 70.0044C67.9917 81.0038 37.5649 81.0038 37.5649 70.0044C7.44105 77.8122 6.9594 78.6224 2.786 111.73C2.63545 112.924 3.56399 114.001 4.76776 114.001H20.4963L18.1627 83.1547C18.0749 81.994 18.993 81.0038 20.157 81.0038H85.8503C87.0117 81.0038 87.9288 81.9896 87.8452 83.1479L85.6169 114.001H100.096Z" fill="white"/>
<path d="M67.9917 70.0044C101.394 77.192 98.1189 88.206 102.081 111.632C102.29 112.865 101.346 114.001 100.096 114.001H85.6169M67.9917 70.0044V67.0342M67.9917 70.0044C67.9917 81.0038 37.5649 81.0038 37.5649 70.0044M37.5649 70.0044C7.44105 77.8122 6.95941 78.6224 2.786 111.73C2.63545 112.924 3.56399 114.001 4.76776 114.001H20.4963M37.5649 70.0044V67.0342M20.4963 114.001L18.1627 83.1547C18.0749 81.994 18.993 81.0038 20.157 81.0038H85.8503C87.0117 81.0038 87.9288 81.9896 87.8452 83.1479L85.6169 114.001M20.4963 114.001L21.3341 123.182C21.4281 124.212 22.2917 125 23.3258 125H82.6928C83.7191 125 84.5789 124.223 84.6826 123.202L85.6169 114.001" stroke="#4E4E4E" stroke-width="4" stroke-linecap="round" stroke-linejoin="round"/>
<path d="M29.7728 31.9485C36.8806 32.7387 43.6797 30.5107 50.4517 22.1103C51.3872 20.9498 53.2511 21.061 54.1257 22.2681C59.9878 30.3585 69.3345 31.9485 75.7839 31.9485C77.2161 31.9485 78.4238 32.2519 79.4145 32.7722C79.4145 2.01085 60.3146 2.01084 52.4073 2.01085C44.5001 2.01086 25.8767 0.510995 25.8767 32.7722C26.9389 32.2519 28.2345 31.9485 29.7728 31.9485Z" fill="#BA9682"/>
<path d="M38.3071 58.6805C45.9138 66.5372 45.9138 66.2917 52.4073 66.2917C61.6838 66.2917 63.2623 64.8048 68.5483 58.6805C72.8915 53.6486 74.7193 50.3899 75.4523 46.7996C76.2222 43.0282 75.7839 38.891 75.7839 31.9485C69.3345 31.9485 59.9878 30.3585 54.1257 22.2681C53.2511 21.061 51.3872 20.9498 50.4517 22.1103C43.6797 30.5107 36.8806 32.7387 29.7728 31.9485C29.7728 38.4368 29.438 43.9876 29.9519 46.7996C30.5995 50.3434 32.595 52.7806 38.3071 58.6805Z" fill="white"/>
<path d="M75.7839 31.9485C75.7839 38.891 76.2222 43.0282 75.4523 46.7996C83.4932 46.7996 85.3538 35.891 79.4145 32.7722C78.4238 32.2519 77.2161 31.9485 75.7839 31.9485Z" fill="white"/>
<path d="M29.9519 46.7996C29.438 43.9876 29.7728 38.4368 29.7728 31.9485C28.2345 31.9485 26.9389 32.2519 25.8767 32.7722C19.5085 35.891 21.53 46.7996 29.9519 46.7996Z" fill="white"/>
<path d="M29.7728 31.9485C29.7728 38.4368 29.438 43.9876 29.9519 46.7996M29.7728 31.9485C36.8806 32.7387 43.6797 30.5107 50.4517 22.1103C51.3872 20.9498 53.2511 21.061 54.1257 22.2681C59.9878 30.3585 69.3345 31.9485 75.7839 31.9485M29.7728 31.9485C28.2345 31.9485 26.9389 32.2519 25.8767 32.7722M75.7839 31.9485C75.7839 38.891 76.2222 43.0282 75.4523 46.7996M75.7839 31.9485C77.2161 31.9485 78.4238 32.2519 79.4145 32.7722M29.9519 46.7996C30.5995 50.3434 32.595 52.7806 38.3071 58.6805C45.9138 66.5372 45.9138 66.2917 52.4073 66.2917C61.6838 66.2917 63.2623 64.8048 68.5483 58.6805C72.8915 53.6486 74.7193 50.3899 75.4523 46.7996M29.9519 46.7996C21.53 46.7996 19.5085 35.891 25.8767 32.7722M75.4523 46.7996C83.4932 46.7996 85.3538 35.891 79.4145 32.7722M25.8767 32.7722C25.8767 0.510995 44.5001 2.01086 52.4073 2.01085C60.3146 2.01084 79.4145 2.01085 79.4145 32.7722" stroke="#4E4E4E" stroke-width="4" stroke-linecap="round" stroke-linejoin="round"/>
</svg>
