<svg width="20" height="20" viewBox="0 0 20 20" fill="none" xmlns="http://www.w3.org/2000/svg">
<mask id="path-1-inside-1_105_2023" fill="white">
<path d="M20 10C20 15.5228 15.5228 20 10 20C4.47715 20 0 15.5228 0 10C0 4.47715 4.47715 0 10 0C15.5228 0 20 4.47715 20 10Z"/>
</mask>
<path d="M10 10H9C9 10.5523 9.44772 11 10 11V10ZM14.1667 11C14.719 11 15.1667 10.5523 15.1667 10C15.1667 9.44772 14.719 9 14.1667 9V11ZM11 4.16667C11 3.61438 10.5523 3.16667 10 3.16667C9.44772 3.16667 9 3.61438 9 4.16667H11ZM10 11H14.1667V9H10V11ZM9 4.16667V10H11V4.16667H9ZM18 10C18 14.4183 14.4183 18 10 18V22C16.6274 22 22 16.6274 22 10H18ZM10 18C5.58172 18 2 14.4183 2 10H-2C-2 16.6274 3.37258 22 10 22V18ZM2 10C2 5.58172 5.58172 2 10 2V-2C3.37258 -2 -2 3.37258 -2 10H2ZM10 2C14.4183 2 18 5.58172 18 10H22C22 3.37258 16.6274 -2 10 -2V2Z" fill="white" mask="url(#path-1-inside-1_105_2023)"/>
</svg>
