<svg width="197" height="50" viewBox="0 0 197 50" fill="none" xmlns="http://www.w3.org/2000/svg">
<rect y="9" width="32" height="32" rx="4" fill="#B9D967"/>
<path d="M46.948 40.36C45.94 40.36 44.92 40.24 43.888 40C42.856 39.736 41.992 39.304 41.296 38.704L42.916 34.996C43.348 35.5 43.828 35.884 44.356 36.148C44.908 36.388 45.58 36.508 46.372 36.508C47.116 36.508 47.716 36.376 48.172 36.112C48.628 35.848 48.964 35.368 49.18 34.672C49.42 33.976 49.54 32.98 49.54 31.684V13.54H53.536V32.692C53.536 35.38 52.924 37.336 51.7 38.56C50.5 39.76 48.916 40.36 46.948 40.36ZM66.8538 40.36C65.1498 40.36 63.6378 39.976 62.3178 39.208C60.9978 38.44 59.9778 37.396 59.2578 36.076C58.5378 34.756 58.1778 33.292 58.1778 31.684C58.1778 30.1 58.5258 28.648 59.2218 27.328C59.9418 26.008 60.9618 24.964 62.2818 24.196C63.6018 23.428 65.1258 23.044 66.8538 23.044C68.5818 23.044 70.0938 23.428 71.3898 24.196C72.7098 24.964 73.7178 26.008 74.4138 27.328C75.1338 28.648 75.4938 30.1 75.4938 31.684C75.4938 33.292 75.1338 34.756 74.4138 36.076C73.6938 37.396 72.6738 38.44 71.3538 39.208C70.0578 39.976 68.5578 40.36 66.8538 40.36ZM66.9618 37.192C68.3538 37.192 69.4458 36.676 70.2378 35.644C71.0538 34.612 71.4618 33.316 71.4618 31.756C71.4618 30.196 71.0298 28.888 70.1658 27.832C69.3018 26.752 68.1618 26.212 66.7458 26.212C65.3778 26.212 64.2738 26.74 63.4338 27.796C62.6178 28.852 62.2098 30.172 62.2098 31.756C62.2098 33.292 62.6538 34.588 63.5418 35.644C64.4298 36.676 65.5698 37.192 66.9618 37.192ZM89.4378 40.36C88.0938 40.36 86.8818 40.036 85.8018 39.388C84.7458 38.716 84.0138 37.948 83.6058 37.084L83.5338 40H79.7898V13.54H83.6058V23.728L83.4258 26.536C83.8338 25.576 84.6258 24.76 85.8018 24.088C87.0018 23.392 88.2978 23.044 89.6898 23.044C91.3218 23.044 92.7378 23.416 93.9378 24.16C95.1618 24.88 96.0978 25.9 96.7458 27.22C97.3938 28.516 97.7178 30.028 97.7178 31.756C97.7178 33.508 97.3338 35.032 96.5658 36.328C95.8218 37.624 94.8138 38.62 93.5418 39.316C92.2938 40.012 90.9258 40.36 89.4378 40.36ZM88.7898 37.12C90.3498 37.12 91.5498 36.628 92.3898 35.644C93.2298 34.636 93.6498 33.34 93.6498 31.756C93.6498 30.148 93.2298 28.852 92.3898 27.868C91.5738 26.86 90.3738 26.356 88.7898 26.356C87.4218 26.356 86.2698 26.836 85.3338 27.796C84.3978 28.732 83.9298 29.968 83.9298 31.504V31.756C83.9298 32.788 84.1458 33.712 84.5778 34.528C85.0338 35.344 85.6218 35.98 86.3418 36.436C87.0858 36.892 87.9018 37.12 88.7898 37.12ZM111.657 40.36C110.313 40.36 109.101 40.036 108.021 39.388C106.965 38.716 106.233 37.948 105.825 37.084L105.753 40H102.009V13.54H105.825V23.728L105.645 26.536C106.053 25.576 106.845 24.76 108.021 24.088C109.221 23.392 110.517 23.044 111.909 23.044C113.541 23.044 114.957 23.416 116.157 24.16C117.381 24.88 118.317 25.9 118.965 27.22C119.613 28.516 119.937 30.028 119.937 31.756C119.937 33.508 119.553 35.032 118.785 36.328C118.041 37.624 117.033 38.62 115.761 39.316C114.513 40.012 113.145 40.36 111.657 40.36ZM111.009 37.12C112.569 37.12 113.769 36.628 114.609 35.644C115.449 34.636 115.869 33.34 115.869 31.756C115.869 30.148 115.449 28.852 114.609 27.868C113.793 26.86 112.593 26.356 111.009 26.356C109.641 26.356 108.489 26.836 107.553 27.796C106.617 28.732 106.149 29.968 106.149 31.504V31.756C106.149 32.788 106.365 33.712 106.797 34.528C107.253 35.344 107.841 35.98 108.561 36.436C109.305 36.892 110.121 37.12 111.009 37.12ZM131.895 40.36C129.927 40.36 128.283 39.976 126.963 39.208C125.643 38.416 124.671 37.372 124.047 36.076C123.423 34.756 123.111 33.316 123.111 31.756C123.111 30.004 123.471 28.468 124.191 27.148C124.935 25.828 125.955 24.82 127.251 24.124C128.547 23.404 130.011 23.044 131.643 23.044C134.187 23.044 136.071 23.752 137.295 25.168C138.543 26.56 139.167 28.528 139.167 31.072C139.167 31.72 139.131 32.392 139.059 33.088H127.179C127.443 34.552 127.959 35.608 128.727 36.256C129.519 36.904 130.611 37.228 132.003 37.228C133.155 37.228 134.103 37.132 134.847 36.94C135.591 36.748 136.275 36.484 136.899 36.148L138.087 38.92C137.487 39.304 136.671 39.64 135.639 39.928C134.607 40.216 133.359 40.36 131.895 40.36ZM135.387 30.388C135.411 28.9 135.087 27.856 134.415 27.256C133.743 26.632 132.783 26.32 131.535 26.32C129.015 26.32 127.563 27.676 127.179 30.388H135.387ZM143.136 23.476H147.024V26.716C147.408 25.612 148.032 24.724 148.896 24.052C149.76 23.38 150.743 23.044 151.848 23.044C152.616 23.044 153.144 23.116 153.432 23.26L152.892 27.184C152.676 27.04 152.208 26.968 151.488 26.968C150.36 26.968 149.328 27.328 148.392 28.048C147.48 28.768 147.024 29.92 147.024 31.504V40H143.136V23.476ZM163.489 40.36C162.001 40.36 160.621 40.012 159.349 39.316C158.101 38.596 157.093 37.588 156.325 36.292C155.581 34.972 155.209 33.436 155.209 31.684C155.209 29.068 155.941 26.98 157.405 25.42C158.869 23.836 160.849 23.044 163.345 23.044C164.737 23.044 166.009 23.392 167.161 24.088C168.313 24.76 169.093 25.576 169.501 26.536L169.321 23.728V13.54H173.137V40H169.429L169.357 37.084C168.949 37.948 168.205 38.716 167.125 39.388C166.045 40.036 164.833 40.36 163.489 40.36ZM164.137 37.084C165.505 37.084 166.657 36.616 167.593 35.68C168.529 34.72 168.997 33.472 168.997 31.936V31.684C168.997 30.652 168.781 29.728 168.349 28.912C167.917 28.096 167.329 27.46 166.585 27.004C165.841 26.548 165.025 26.32 164.137 26.32C162.601 26.32 161.413 26.824 160.573 27.832C159.733 28.816 159.313 30.1 159.313 31.684C159.313 33.292 159.721 34.6 160.537 35.608C161.377 36.592 162.577 37.084 164.137 37.084ZM185.998 40.36C184.294 40.36 182.782 39.976 181.462 39.208C180.142 38.44 179.122 37.396 178.402 36.076C177.682 34.756 177.322 33.292 177.322 31.684C177.322 30.1 177.67 28.648 178.366 27.328C179.086 26.008 180.106 24.964 181.426 24.196C182.746 23.428 184.27 23.044 185.998 23.044C187.726 23.044 189.238 23.428 190.534 24.196C191.854 24.964 192.862 26.008 193.558 27.328C194.278 28.648 194.638 30.1 194.638 31.684C194.638 33.292 194.278 34.756 193.558 36.076C192.838 37.396 191.818 38.44 190.498 39.208C189.202 39.976 187.702 40.36 185.998 40.36ZM186.106 37.192C187.498 37.192 188.59 36.676 189.382 35.644C190.198 34.612 190.606 33.316 190.606 31.756C190.606 30.196 190.174 28.888 189.31 27.832C188.446 26.752 187.306 26.212 185.89 26.212C184.522 26.212 183.418 26.74 182.578 27.796C181.762 28.852 181.354 30.172 181.354 31.756C181.354 33.292 181.798 34.588 182.686 35.644C183.574 36.676 184.714 37.192 186.106 37.192Z" fill="#4E4E4E"/>
</svg>
